<svg xmlns="http://www.w3.org/2000/svg" xmlns:xlink="http://www.w3.org/1999/xlink" width="912.663" height="956.426" viewBox="0 0 912.663 956.426"><defs><linearGradient id="a" x1="-0.001" y1="0.5" x2="1" y2="0.5" gradientUnits="objectBoundingBox"><stop offset="0" stop-color="#18233d"/><stop offset="1" stop-color="#507693"/></linearGradient><linearGradient id="b" x1="-0.001" y1="0.5" y2="0.5" xlink:href="#a"/><linearGradient id="c" y1="0.5" x2="1" y2="0.5" gradientUnits="objectBoundingBox"><stop offset="0" stop-color="#027374"/><stop offset="1" stop-color="#18233d"/></linearGradient><linearGradient id="d" y1="0.5" x2="1" y2="0.5" gradientUnits="objectBoundingBox"><stop offset="0" stop-color="#168b6e"/><stop offset="1" stop-color="#025c62"/></linearGradient></defs><g transform="translate(0 -0.005)" opacity="0.205"><g transform="translate(0 0.005)"><path d="M494.275,282.792V478.535a36.7,36.7,0,0,1-57.214,30.442L76.016,265.778A43.7,43.7,0,0,1,57,229.5v-1.168a44.286,44.286,0,0,1,20.1-36.78L275.763,60.11l155.961,105a141.783,141.783,0,0,1,62.551,117.68Z" transform="translate(418.388 441.177)" fill="url(#a)"/><path d="M430.722,348.917,57,596.036V338.993c0-15.429,0-82.234,57.63-121.349L437.394,6.054a36.7,36.7,0,0,1,56.88,30.692V230.654a141.79,141.79,0,0,1-63.566,118.273Z" transform="translate(418.389 -0.005)" fill="url(#b)"/><path d="M62.635,165.112l155.877-105,199,131.441a44.036,44.036,0,0,1,20.1,36.78V229.5a43.869,43.869,0,0,1-19.266,36.28L57.3,508.977A36.78,36.78,0,0,1,0,478.535V282.792A141.782,141.782,0,0,1,62.635,165.113Z" transform="translate(0 441.177)" fill="url(#c)"/><path d="M0,230.654V36.745A36.7,36.7,0,0,1,56.88,6.054l322.931,211.59c57.714,39.115,57.63,105.92,57.547,121.349V596.036L63.635,348.917A141.783,141.783,0,0,1,0,230.654Z" transform="translate(0 -0.005)" fill="url(#d)"/></g></g></svg>