<?xml version="1.0" encoding="UTF-8"?><svg xmlns="http://www.w3.org/2000/svg" xmlns:xlink="http://www.w3.org/1999/xlink" viewBox="0 0 146.23 109.67"><defs><style>.h{fill:url(#e);}.i{fill:url(#d);}.j{fill:url(#g);}.k{fill:url(#f);}.l{fill:#19253f;}</style><linearGradient id="d" x1="124.21" y1="36.68" x2="146.23" y2="36.68" gradientTransform="matrix(1, 0, 0, 1, 0, 0)" gradientUnits="userSpaceOnUse"><stop offset="0" stop-color="#18233d"/><stop offset="1" stop-color="#507693"/></linearGradient><linearGradient id="e" x1="124.22" y1="15" x2="146.23" y2="15" gradientTransform="matrix(1, 0, 0, 1, 0, 0)" gradientUnits="userSpaceOnUse"><stop offset="0" stop-color="#18233d"/><stop offset="1" stop-color="#507693"/></linearGradient><linearGradient id="f" x1="100.31" y1="36.68" x2="122.33" y2="36.68" gradientTransform="matrix(1, 0, 0, 1, 0, 0)" gradientUnits="userSpaceOnUse"><stop offset="0" stop-color="#027374"/><stop offset="1" stop-color="#18233d"/></linearGradient><linearGradient id="g" x1="100.31" y1="15" x2="122.33" y2="15" gradientTransform="matrix(1, 0, 0, 1, 0, 0)" gradientUnits="userSpaceOnUse"><stop offset="0" stop-color="#168b6e"/><stop offset="1" stop-color="#025c62"/></linearGradient></defs><g id="a"/><g id="b"><g id="c"><g><path class="i" d="M146.23,36.43v9.85c0,1.48-1.65,2.36-2.88,1.53l-18.17-12.24c-.61-.41-.97-1.09-.97-1.82v-.06c.01-.76,.38-1.43,1.01-1.85l10.01-6.62,7.85,5.29c1.97,1.33,3.15,3.55,3.15,5.92Z"/><path class="h" d="M143.03,17.56l-18.82,12.43v-12.93c0-.78,0-4.14,2.91-6.11L143.37,.31c1.23-.81,2.86,.08,2.86,1.55V11.61c0,2.4-1.2,4.63-3.2,5.95Z"/><path class="k" d="M103.46,30.51l7.85-5.29,10.01,6.62c.63,.42,1,1.09,1.01,1.85v.06c0,.73-.36,1.41-.97,1.82l-18.17,12.24c-1.23,.83-2.88-.05-2.88-1.53v-9.85c0-2.37,1.18-4.59,3.15-5.92Z"/><path class="j" d="M100.31,11.61V1.85c0-1.47,1.63-2.35,2.86-1.55l16.25,10.65c2.91,1.97,2.9,5.33,2.9,6.11v12.93l-18.81-12.43c-2-1.32-3.2-3.56-3.2-5.95Z"/></g><g><path class="l" d="M.05,97.88V57.45c0-3.1,2.51-5.61,5.61-5.61H38.47c1.86,0,3.69,.66,5.06,1.91,1.75,1.59,2.62,3.51,2.62,5.78v13.51c0,2.27-.88,4.19-2.63,5.78-1.38,1.25-3.2,1.9-5.05,1.9H5.23v11.97c0,2.86-2.32,5.19-5.19,5.19h0Zm7.68-22.41h30.74c.68,0,1.27-.23,1.76-.7,.49-.47,.74-1.05,.74-1.73v-13.51c0-.68-.25-1.27-.74-1.76-.49-.49-1.08-.74-1.76-.74H7.73c-.68,0-1.27,.25-1.76,.74-.49,.49-.74,1.08-.74,1.76v13.51c0,.68,.25,1.26,.74,1.73,.49,.47,1.08,.7,1.76,.7Z"/><path class="l" d="M50.7,97.88V57.45c0-3.1,2.51-5.61,5.61-5.61h32.81c1.86,0,3.69,.66,5.06,1.91,1.75,1.59,2.62,3.51,2.62,5.78v13.51c0,2.27-.88,4.19-2.63,5.78-1.38,1.25-3.2,1.9-5.05,1.9H55.88v11.97c0,2.86-2.32,5.19-5.19,5.19h0Zm7.68-22.41h30.74c.68,0,1.27-.23,1.76-.7,.49-.47,.74-1.05,.74-1.73v-13.51c0-.68-.25-1.27-.74-1.76-.49-.49-1.08-.74-1.76-.74h-30.74c-.68,0-1.27,.25-1.76,.74-.49,.49-.74,1.08-.74,1.76v13.51c0,.68,.25,1.26,.74,1.73,.49,.47,1.08,.7,1.76,.7Z"/><path class="l" d="M100.71,97.88v-.06l19.34-22.99-19.34-22.99v-.06h2.04c2.93,0,5.71,1.29,7.6,3.53l13.09,15.49,13.03-15.48c1.89-2.25,4.68-3.54,7.61-3.54h2.03v.06l-19.34,22.99,19.4,22.99v.06h-2.09c-2.94,0-5.72-1.3-7.61-3.54l-13.03-15.48-13.09,15.49c-1.89,2.24-4.67,3.53-7.6,3.53h-2.04Z"/></g><g><path class="l" d="M4.73,104.56H.74v2h3.56v.58H.74v2.44H0v-5.6H4.73v.58Z"/><path class="l" d="M8.39,103.98v5.6h-.74v-5.6h.74Z"/><path class="l" d="M16.58,103.98h.72v5.6h-.59l-4.25-4.59v4.59h-.72v-5.6h.7l4.14,4.49v-4.49Z"/><path class="l" d="M26.71,109.58h-.8l-.77-1.48h-3.58l-.78,1.48h-.76l3-5.64h.7l3,5.64Zm-3.35-4.9l-1.5,2.86h3l-1.49-2.86Z"/><path class="l" d="M34.26,103.98h.72v5.6h-.59l-4.25-4.59v4.59h-.72v-5.6h.7l4.14,4.49v-4.49Z"/><path class="l" d="M43.37,109.09c-.19,.12-.38,.22-.6,.31-.21,.08-.44,.15-.69,.2-.24,.05-.52,.07-.82,.07-.48,0-.91-.07-1.32-.22s-.75-.35-1.04-.61c-.29-.26-.52-.56-.69-.92-.17-.35-.25-.73-.25-1.14s.08-.78,.25-1.13c.17-.35,.4-.66,.69-.92,.29-.26,.65-.47,1.05-.62,.41-.15,.85-.23,1.33-.23,.3,0,.57,.02,.81,.06,.24,.04,.46,.1,.67,.18,.21,.08,.4,.17,.57,.28,.18,.11,.34,.23,.51,.36l-.51,.46c-.28-.22-.58-.41-.91-.55-.32-.14-.71-.22-1.16-.22-.36,0-.7,.06-1.01,.18s-.58,.28-.81,.49c-.23,.21-.41,.45-.54,.73-.13,.28-.19,.58-.19,.91s.06,.63,.19,.91,.31,.53,.54,.74,.5,.37,.81,.49,.65,.18,1.01,.18c.45,0,.84-.07,1.17-.21,.33-.14,.65-.34,.96-.6l.49,.41c-.17,.15-.35,.28-.53,.4Z"/><path class="l" d="M47.42,103.98v5.6h-.74v-5.6h.74Z"/><path class="l" d="M56.9,109.58h-.8l-.77-1.48h-3.58l-.78,1.48h-.76l3-5.64h.7l3,5.64Zm-3.35-4.9l-1.5,2.86h3l-1.49-2.86Z"/><path class="l" d="M59.61,103.98h.74v5.02h3.7v.58h-4.44v-5.6Z"/><path class="l" d="M76.19,109.09c-.19,.12-.38,.22-.6,.31-.21,.08-.44,.15-.69,.2-.24,.05-.52,.07-.82,.07-.48,0-.91-.07-1.32-.22s-.75-.35-1.04-.61c-.29-.26-.52-.56-.69-.92-.17-.35-.25-.73-.25-1.14s.08-.78,.25-1.13c.17-.35,.4-.66,.69-.92,.29-.26,.65-.47,1.05-.62,.41-.15,.85-.23,1.33-.23,.3,0,.57,.02,.81,.06,.24,.04,.46,.1,.67,.18,.21,.08,.4,.17,.57,.28,.18,.11,.34,.23,.51,.36l-.51,.46c-.28-.22-.58-.41-.91-.55-.32-.14-.71-.22-1.16-.22-.36,0-.7,.06-1.01,.18s-.58,.28-.81,.49c-.23,.21-.41,.45-.54,.73-.13,.28-.19,.58-.19,.91s.06,.63,.19,.91,.31,.53,.54,.74,.5,.37,.81,.49,.65,.18,1.01,.18c.45,0,.84-.07,1.17-.21,.33-.14,.65-.34,.96-.6l.49,.41c-.17,.15-.35,.28-.53,.4Z"/><path class="l" d="M85.42,107.88c-.16,.35-.39,.66-.69,.92s-.65,.48-1.06,.64c-.41,.16-.87,.24-1.37,.24s-.96-.08-1.37-.23c-.41-.15-.76-.36-1.06-.63-.29-.26-.52-.57-.68-.92-.16-.35-.24-.72-.24-1.11s.08-.76,.24-1.11c.16-.35,.39-.66,.69-.92,.29-.27,.65-.48,1.06-.64,.41-.16,.87-.24,1.37-.24s.96,.08,1.37,.23,.76,.36,1.06,.63,.52,.57,.68,.92c.16,.35,.24,.72,.24,1.11s-.08,.76-.24,1.11Zm-.72-2c-.13-.28-.31-.53-.54-.74s-.51-.37-.82-.5c-.32-.12-.66-.18-1.04-.18s-.72,.06-1.04,.18c-.32,.12-.59,.28-.81,.49-.23,.21-.4,.45-.53,.73s-.19,.58-.19,.9,.06,.62,.19,.9,.31,.53,.54,.74c.23,.21,.51,.37,.82,.5,.32,.12,.66,.18,1.04,.18s.72-.06,1.04-.18c.32-.12,.59-.28,.81-.49s.4-.45,.53-.73c.13-.28,.19-.58,.19-.9s-.06-.62-.19-.9Z"/><path class="l" d="M93.5,103.98h.72v5.6h-.59l-4.25-4.59v4.59h-.72v-5.6h.7l4.14,4.49v-4.49Z"/><path class="l" d="M98.15,105.73c.05,.11,.14,.2,.27,.29,.13,.09,.31,.17,.54,.24,.23,.07,.53,.14,.89,.2,.73,.14,1.27,.33,1.62,.58,.35,.25,.52,.58,.52,1.02,0,.24-.06,.46-.17,.66s-.26,.37-.46,.5c-.2,.14-.43,.25-.71,.32-.28,.07-.58,.11-.9,.11-.53,0-1.01-.07-1.44-.22s-.85-.37-1.25-.67l.46-.46c.34,.27,.69,.47,1.04,.6,.35,.13,.75,.2,1.21,.2s.8-.09,1.07-.26c.27-.18,.4-.41,.4-.7,0-.13-.02-.25-.08-.36-.05-.1-.14-.2-.26-.28-.13-.09-.3-.16-.52-.23-.22-.07-.51-.14-.85-.2-.38-.07-.71-.15-.98-.24s-.51-.2-.69-.33c-.18-.13-.32-.28-.4-.45s-.13-.37-.13-.61,.05-.43,.16-.62,.26-.35,.45-.48c.19-.14,.42-.24,.69-.32,.26-.08,.55-.12,.86-.12,.48,0,.9,.06,1.26,.17,.36,.11,.71,.28,1.05,.51l-.43,.49c-.31-.21-.62-.37-.93-.46-.31-.1-.63-.14-.97-.14-.21,0-.41,.02-.58,.07-.17,.05-.32,.11-.44,.19-.12,.08-.22,.18-.28,.29-.07,.11-.1,.23-.1,.36s.02,.25,.08,.36Z"/><path class="l" d="M110.31,107.19c0,.41-.07,.77-.2,1.08-.13,.31-.32,.57-.56,.78s-.53,.36-.86,.47c-.33,.1-.71,.16-1.12,.16s-.78-.05-1.11-.16-.62-.26-.86-.46c-.24-.21-.43-.46-.56-.76-.13-.3-.2-.65-.2-1.05v-3.26h.74v3.22c0,.61,.18,1.07,.53,1.4s.85,.49,1.48,.49,1.09-.15,1.45-.46c.36-.31,.54-.77,.54-1.38v-3.26h.74v3.21Z"/><path class="l" d="M113.48,103.98h.74v5.02h3.7v.58h-4.44v-5.6Z"/><path class="l" d="M122.26,109.58h-.74v-5.02h-2.21v-.58h5.16v.58h-2.21v5.02Z"/><path class="l" d="M128.09,103.98v5.6h-.74v-5.6h.74Z"/><path class="l" d="M136.28,103.98h.72v5.6h-.59l-4.25-4.59v4.59h-.72v-5.6h.7l4.14,4.49v-4.49Z"/><path class="l" d="M144.84,109.42c-.45,.17-.95,.25-1.51,.25-.52,0-.99-.07-1.4-.22-.41-.15-.76-.35-1.05-.62-.29-.26-.51-.57-.67-.92s-.23-.73-.23-1.13,.08-.75,.24-1.1c.16-.35,.38-.66,.67-.93,.29-.27,.63-.48,1.04-.64,.4-.16,.85-.24,1.35-.24,.28,0,.53,.02,.76,.05,.23,.03,.44,.08,.64,.14s.38,.14,.55,.24c.17,.09,.34,.2,.5,.32l-.48,.48c-.13-.1-.26-.18-.39-.26-.14-.08-.29-.14-.45-.2-.16-.06-.33-.1-.53-.13-.19-.03-.4-.05-.63-.05-.36,0-.7,.06-1.01,.18-.31,.12-.57,.29-.79,.5s-.39,.45-.52,.73c-.13,.28-.19,.58-.19,.89,0,.34,.06,.65,.18,.93,.12,.29,.3,.53,.52,.74,.23,.21,.5,.37,.82,.49,.32,.12,.68,.18,1.08,.18,.38,0,.73-.06,1.06-.16,.33-.11,.61-.24,.84-.4v-1.4h-2v-.56h2.72v2.23c-.31,.23-.68,.44-1.13,.6Z"/></g></g></g></svg>